<?xml version="1.0" encoding="UTF-8"?>
<svg version="1.1" xmlns="http://www.w3.org/2000/svg" width="60" height="40">
<path d="M0 0 C2.0625 0.4375 2.0625 0.4375 4 1 C3.125 7.75 3.125 7.75 2 10 C4.64 9.67 7.28 9.34 10 9 C9.67 10.65 9.34 12.3 9 14 C7.35 14.33 5.7 14.66 4 15 C5.0209375 16.1446875 5.0209375 16.1446875 6.0625 17.3125 C6.701875 18.199375 7.34125 19.08625 8 20 C7.67 20.99 7.34 21.98 7 23 C2.25 22.25 2.25 22.25 0 20 C0 18.68 0 17.36 0 16 C-1.41577477 17.18424326 -1.41577477 17.18424326 -1.0625 20.5625 C-1.041875 21.696875 -1.02125 22.83125 -1 24 C-2.875 25.0625 -2.875 25.0625 -5 26 C-5.66 25.67 -6.32 25.34 -7 25 C-6.67 22.69 -6.34 20.38 -6 18 C-8.31 18.33 -10.62 18.66 -13 19 C-13.33 17.68 -13.66 16.36 -14 15 C-12.02 14.34 -10.04 13.68 -8 13 C-8.845625 12.113125 -9.69125 11.22625 -10.5625 10.3125 C-13.02603251 7.3991652 -13.02603251 7.3991652 -12.8125 4.125 C-12.544375 3.42375 -12.27625 2.7225 -12 2 C-8.17716957 2.54611863 -6.58920048 4.23818615 -4 7 C-3.34 7.33 -2.68 7.66 -2 8 C-1.855625 6.865625 -1.71125 5.73125 -1.5625 4.5625 C-1 1 -1 1 0 0 Z " fill="#E9C8C5" transform="translate(25,8)"/>
<path d="M0 0 C1.32 0.33 2.64 0.66 4 1 C3.125 7.75 3.125 7.75 2 10 C4.64 9.67 7.28 9.34 10 9 C9.67 10.65 9.34 12.3 9 14 C7.35 14.33 5.7 14.66 4 15 C4.680625 15.763125 5.36125 16.52625 6.0625 17.3125 C6.701875 18.199375 7.34125 19.08625 8 20 C7.67 20.99 7.34 21.98 7 23 C2.25 22.25 2.25 22.25 0 20 C0 18.68 0 17.36 0 16 C-0.99 16 -1.98 16 -3 16 C-2.88544319 14.08268082 -2.75793742 12.1661325 -2.625 10.25 C-2.55539063 9.18265625 -2.48578125 8.1153125 -2.4140625 7.015625 C-2.0271777 4.19793568 -1.44313834 2.4169634 0 0 Z " fill="#E9C4C5" transform="translate(25,8)"/>
<path d="M0 0 C1.32 0.33 2.64 0.66 4 1 C3.67 3.31 3.34 5.62 3 8 C2.34 8 1.68 8 1 8 C0.67 10.31 0.34 12.62 0 15 C-0.99 15.33 -1.98 15.66 -3 16 C-2.88544319 14.08268082 -2.75793742 12.1661325 -2.625 10.25 C-2.55539063 9.18265625 -2.48578125 8.1153125 -2.4140625 7.015625 C-2.0271777 4.19793568 -1.44313834 2.4169634 0 0 Z " fill="#C38583" transform="translate(25,8)"/>
<path d="M0 0 C2 1.0625 2 1.0625 4 3 C4.25 6.6875 4.25 6.6875 4 10 C2.125 11.0625 2.125 11.0625 0 12 C-0.66 11.67 -1.32 11.34 -2 11 C-1.67 8.69 -1.34 6.38 -1 4 C-1.66 3.67 -2.32 3.34 -3 3 C-2.01 3 -1.02 3 0 3 C0 2.01 0 1.02 0 0 Z " fill="#EACFCD" transform="translate(20,22)"/>
<path d="M0 0 C2.05078125 0.03255208 4.1015625 0.06510417 6.15234375 0.09765625 C6.15234375 1.08765625 6.15234375 2.07765625 6.15234375 3.09765625 C3.0642468 4.86228308 1.91922239 5.09765625 -1.84765625 5.09765625 C-2.41015625 3.16015625 -2.41015625 3.16015625 -2.84765625 1.09765625 C-1.84765625 0.09765625 -1.84765625 0.09765625 0 0 Z " fill="#C68785" transform="translate(13.84765625,21.90234375)"/>
<path d="M0 0 C1.65 0 3.3 0 5 0 C4.67 1.65 4.34 3.3 4 5 C1.69 5 -0.62 5 -3 5 C-3 4.01 -3 3.02 -3 2 C-2.01 2 -1.02 2 0 2 C0 1.34 0 0.68 0 0 Z " fill="#C58484" transform="translate(30,17)"/>
<path d="M0 0 C0.93619813 3.15506142 1.1057123 5.96586502 1.0625 9.25 C1.05347656 10.14203125 1.04445313 11.0340625 1.03515625 11.953125 C1.02355469 12.62859375 1.01195312 13.3040625 1 14 C0.01 14.33 -0.98 14.66 -2 15 C-1.85879286 13.06215735 -1.71187127 11.12473045 -1.5625 9.1875 C-1.48128906 8.10855469 -1.40007813 7.02960937 -1.31640625 5.91796875 C-1 3 -1 3 0 0 Z " fill="#BD7274" transform="translate(24,9)"/>
<path d="M0 0 C1.32 0.33 2.64 0.66 4 1 C4 1.66 4 2.32 4 3 C5.32 3.66 6.64 4.32 8 5 C8 5.66 8 6.32 8 7 C4.21388773 6.45912682 2.44599233 4.88277668 0 2 C0 1.34 0 0.68 0 0 Z " fill="#AE5757" transform="translate(13,12)"/>
<path d="M0 0 C0.33 0.66 0.66 1.32 1 2 C1.99 2.33 2.98 2.66 4 3 C3.01 3 2.02 3 1 3 C1 3.99 1 4.98 1 6 C1.66 6.33 2.32 6.66 3 7 C1.02 7.99 1.02 7.99 -1 9 C-2.60031344 5.79937313 -1.03173691 3.27728194 0 0 Z " fill="#F0D5D0" transform="translate(26,16)"/>
<path d="M0 0 C0.99 0 1.98 0 3 0 C5 3 5 3 5 6 C3.0625 5.25 3.0625 5.25 1 4 C0.25 1.875 0.25 1.875 0 0 Z " fill="#B06262" transform="translate(26,24)"/>
<path d="M0 0 C0.99 0 1.98 0 3 0 C3 1.65 3 3.3 3 5 C2.01 5.33 1.02 5.66 0 6 C0 4.02 0 2.04 0 0 Z " fill="#B25F5E" transform="translate(20,26)"/>
</svg>
